<svg width="20" height="20" viewBox="0 0 20 20" fill="none" xmlns="http://www.w3.org/2000/svg">
<path d="M17.9857 6.81868C17.8697 6.90869 15.8215 8.06281 15.8215 10.6291C15.8215 13.5974 18.4278 14.6475 18.5058 14.6735C18.4938 14.7375 18.0918 16.1116 17.1317 17.5118C16.2756 18.7439 15.3815 19.974 14.0213 19.974C12.6612 19.974 12.3112 19.1839 10.741 19.1839C9.21087 19.1839 8.66681 20 7.42269 20C6.17856 20 5.31048 18.8599 4.31238 17.4597C3.15626 15.8156 2.22217 13.2613 2.22217 10.8371C2.22217 6.94869 4.75042 4.88649 7.23867 4.88649C8.5608 4.88649 9.66291 5.75458 10.493 5.75458C11.2831 5.75458 12.5152 4.83448 14.0193 4.83448C14.5894 4.83448 16.6376 4.88649 17.9857 6.81868ZM13.3053 3.18832C13.9273 2.45024 14.3674 1.42614 14.3674 0.40204C14.3674 0.260026 14.3554 0.116012 14.3294 0C13.3173 0.0380038 12.1132 0.674067 11.3871 1.51615C10.817 2.16422 10.285 3.18832 10.285 4.22642C10.285 4.38244 10.311 4.53845 10.323 4.58846C10.387 4.60046 10.491 4.61446 10.595 4.61446C11.5031 4.61446 12.6452 4.0064 13.3053 3.18832Z" fill="#1E1E1E"/>
</svg>
