<svg width="20" height="20" viewBox="0 0 20 20" fill="none" xmlns="http://www.w3.org/2000/svg">
<path d="M19.8736 11.8588C19.8401 11.7923 19.8067 11.7256 19.7736 11.6588L19.3413 10.8206C18.9737 10.124 18.5986 9.43139 18.216 8.74294C18.1698 8.2979 18.1224 7.853 18.0736 7.40824C18.0401 7.21353 18.0754 7.09941 17.9389 6.72353C17.8813 6.56882 17.7619 6.45176 17.656 6.32941C17.5177 6.24353 17.3913 6.12647 17.216 6.09588C17.13 6.0755 17.043 6.05979 16.9554 6.04882C16.8742 6.04 16.8448 6.04588 16.7872 6.04412L16.476 6.04353L15.1683 6.04412L9.13421 6.06882L5.79362 6.09235C5.22657 6.09706 4.6548 6.10176 4.08186 6.10529L3.22068 6.11294L2.99892 6.11706C2.8825 6.13191 2.7673 6.15511 2.65421 6.18647C2.44715 6.28059 2.26304 6.41706 2.14186 6.61176C2.02009 6.78824 1.96657 7.08824 1.96362 7.18765L1.91892 7.61647L1.82951 8.47412L1.81951 8.57059C1.58362 8.77765 1.36068 9.40177 1.21421 9.74412C1.11598 9.97294 0.715389 10.7447 0.316565 11.5047L0.167742 11.7882C0.143036 11.8424 0.118918 11.8647 0.0936243 11.9441C0.0677419 12.0324 0.0365654 12.1188 0.0400948 12.2076C0.0189184 12.5724 0.327154 12.8453 0.63186 12.8665C0.720095 12.8829 0.755389 12.8806 0.795389 12.8812L0.914213 12.8824L1.12127 12.8847L1.37245 12.8865L1.37068 12.9018L1.36009 13.0053C1.35695 13.0572 1.35596 13.1092 1.35715 13.1612C1.36774 13.3794 1.47009 13.6018 1.64068 13.7476C1.80421 13.8982 2.04833 13.9606 2.23009 13.9559L2.63598 13.9518L3.43833 13.9429L4.99951 13.9259L7.91068 13.8929L15.0701 13.8047C15.6987 13.7983 16.327 13.7744 16.9542 13.7329C17.1942 13.7159 17.4007 13.6965 17.5777 13.6765C17.7524 13.6647 17.9136 13.6259 17.9995 13.5412C18.1807 13.3753 18.1377 13.2147 18.1254 13.1571C18.0936 13.0894 18.0766 13.0771 18.0766 13.0771C18.0189 13.0647 17.9889 13.1488 17.9242 13.2065C17.8921 13.2377 17.8505 13.2572 17.806 13.2618C17.7754 13.2624 17.7683 13.2594 17.7113 13.2559C17.6197 13.2497 17.5282 13.2438 17.4366 13.2382C16.6642 13.1947 15.5742 13.1771 14.3554 13.1747C11.9177 13.1688 8.96304 13.2229 6.99245 13.2447L4.67009 13.2571L2.96362 13.2612L2.49009 13.2618H2.24657C2.16421 13.2594 2.1748 13.2576 2.14186 13.2494C2.05127 13.1982 2.03774 13.2076 2.09598 12.7541L2.61539 8.18059L2.6848 7.56882L2.72009 7.26118C2.72715 7.21824 2.72833 7.13882 2.74127 7.12588C2.75158 7.10787 2.75856 7.08814 2.76186 7.06765C2.79774 6.99294 2.87833 6.90824 2.96362 6.90353C2.98892 6.90235 2.99127 6.88941 3.03539 6.88647H3.50892L6.05245 6.88824L15.5454 6.89882L16.5336 6.9H16.7701C16.846 6.9 16.9436 6.89765 16.9495 6.91294C17.0024 6.91294 17.0654 6.95294 17.1072 6.99647C17.1595 7.04882 17.1607 7.08706 17.1877 7.15412L17.2342 7.56353L17.3195 8.31941L17.5513 10.37C17.8089 12.6353 18.183 13.53 18.3507 12.8088C18.38 12.8353 18.4119 12.8588 18.446 12.8788C18.4954 12.9065 18.6142 12.9247 18.7854 12.9359L19.0789 12.9465C19.1442 12.9435 19.1672 12.9559 19.2748 12.9394C19.3889 12.9276 19.5036 12.9024 19.6077 12.8429C19.8201 12.7335 19.966 12.4935 19.9613 12.2282C19.9689 12.1065 19.9019 11.9306 19.8736 11.8588ZM1.00009 12.1529L0.855977 12.1512H0.791271V12.1518C0.791271 12.1524 0.78833 12.1553 0.783624 12.1547C0.78093 12.154 0.778482 12.1526 0.776565 12.1506C0.77833 12.1412 0.759507 12.1712 0.800683 12.0859L1.14362 11.33C1.3248 10.9235 1.50127 10.5135 1.6548 10.1535L1.65186 10.1806L1.47715 11.8653C1.4661 11.9745 1.45473 12.0838 1.44304 12.1929C1.37826 12.178 1.31234 12.1685 1.24598 12.1647L1.00009 12.1529ZM19.1801 12.2129L18.5613 12.2118C18.5133 12.2116 18.4656 12.2184 18.4195 12.2318C18.4348 11.97 18.4413 11.6518 18.433 11.2594C18.4196 10.9261 18.3964 10.5932 18.3636 10.2612C18.5313 10.6212 18.7354 11.0682 18.9377 11.5147L19.2154 12.13C19.233 12.1653 19.2142 12.2088 19.1801 12.2129Z" fill="#141414"/>
<path d="M7.40215 10.7071L7.29921 10.7141C7.25013 10.7057 7.20065 10.6999 7.15097 10.6965C7.08921 10.6682 6.99803 10.7612 6.91686 10.8777C6.83921 10.9947 6.79156 11.1553 6.90744 11.3135C6.93627 11.3547 7.02333 11.4029 7.14862 11.4218C7.28392 11.4418 7.42333 11.4765 7.69156 11.3759C7.96744 11.3112 8.18509 10.96 8.17627 10.6635C8.17039 10.3829 8.07803 10.0965 7.78215 9.89118C7.50274 9.76236 7.43509 9.76471 7.38803 9.7153C7.36333 9.7 7.3498 9.66 7.33509 9.61412C7.33686 9.56118 7.32215 9.49059 7.33274 9.45883C7.34039 9.28295 7.51509 9.25 7.56862 9.25118C7.77039 9.23883 7.91744 9.0353 7.91744 9.0353C7.99333 8.87295 7.83627 8.72059 7.52392 8.70647C7.35215 8.71589 7.12568 8.76647 6.99097 8.92412C6.83333 9.06883 6.82803 9.2553 6.77568 9.37647C6.77921 9.46589 6.72156 9.63059 6.81862 9.91412C6.90744 10.2147 7.33509 10.3982 7.41392 10.4335C7.42803 10.4365 7.47274 10.5106 7.47627 10.5894C7.47803 10.6777 7.46274 10.6788 7.44333 10.6982C7.42862 10.7035 7.43097 10.7071 7.40215 10.7071ZM4.31921 11.3212C4.39274 11.3865 4.6298 11.2829 4.6298 11.2829C4.96391 11.1247 4.73039 10.9853 4.64686 10.9C4.59862 10.85 4.48803 10.6182 4.39627 10.4153C4.46568 10.37 4.5245 10.2918 4.58333 10.2188C4.65274 10.1371 4.66627 10.0653 4.69686 9.98471C4.72803 9.90295 4.74509 9.82353 4.74686 9.74648C4.76884 9.56871 4.74828 9.38826 4.68686 9.22C4.61215 9.0053 4.38568 8.83118 4.19627 8.78C4.11116 8.75505 4.02358 8.73947 3.93509 8.73353C3.84237 8.72773 3.74933 8.72931 3.65686 8.73824C3.54641 8.74652 3.43683 8.76383 3.32921 8.79L3.17744 8.82706C3.12686 8.83942 3.0645 8.84177 3.08509 8.91353C3.08568 9.12118 3.08274 9.36824 3.09039 9.50942L3.14803 10.1771L3.22391 10.9618C3.26097 11.3077 3.51921 11.3506 3.51921 11.3506C3.74039 11.3635 3.77509 11.0594 3.76039 10.7206C3.95156 10.9788 4.27274 11.28 4.31921 11.3212ZM3.98156 9.42589C4.01803 9.44 4.01862 9.4453 4.02803 9.46353C4.0398 9.46706 4.03391 9.50647 4.04156 9.56942C4.03862 9.67706 4.00568 9.80295 3.98039 9.80353C3.98274 9.83177 3.79156 9.85412 3.69627 9.8553L3.69509 9.82L3.69039 9.4553C3.67921 9.38059 3.69391 9.36118 3.98156 9.42589ZM11.1374 11.3265C11.2139 11.3906 11.4474 11.2777 11.4474 11.2777C11.7751 11.1059 11.5339 10.9724 11.4463 10.8877C11.3957 10.8388 11.2733 10.6065 11.171 10.4041C11.2363 10.3505 11.2946 10.2889 11.3445 10.2206C11.4139 10.1388 11.428 10.0665 11.4586 9.98647C11.4898 9.90412 11.5069 9.82471 11.5092 9.74765C11.5309 9.57008 11.5104 9.38989 11.4492 9.22177C11.3751 9.00706 11.1492 8.83295 10.9592 8.78118C10.8741 8.75623 10.7865 8.74064 10.698 8.73471C10.6055 8.72861 10.5126 8.73018 10.4204 8.73942C10.31 8.74751 10.2004 8.76462 10.0927 8.79059L9.94097 8.82824C9.89156 8.84059 9.82686 8.84118 9.84744 8.91412C9.84803 9.12177 9.84509 9.36824 9.85274 9.51L9.91039 10.1777L9.98627 10.9624C10.0233 11.3077 10.2816 11.3506 10.2816 11.3506C10.508 11.3635 10.5398 11.0453 10.5222 10.6982C10.7198 10.9624 11.0863 11.2841 11.1374 11.3265ZM10.7421 9.42765C10.7774 9.44177 10.7792 9.44706 10.788 9.4653C10.7992 9.46824 10.7939 9.50824 10.8016 9.57177C10.7986 9.67883 10.7657 9.80471 10.7404 9.80471C10.7416 9.83353 10.5516 9.85589 10.4563 9.85706L10.4551 9.82118L10.4504 9.45648C10.4398 9.38236 10.4557 9.36295 10.7421 9.42765ZM6.11568 9.32295C6.37686 9.28589 6.4098 9.02706 6.4098 9.02706C6.41803 8.84236 6.25862 8.78647 6.05627 8.78177C5.94744 8.77706 5.37097 8.82353 5.11391 8.84177H5.10097L5.11391 9.41118L5.11686 9.97118L5.10686 11.3088L6.18156 11.3153C6.44274 11.3153 6.49156 10.8718 6.26333 10.6494C6.23509 10.5882 5.82274 10.5724 5.80803 10.5818C5.80568 10.5806 5.80392 10.5771 5.80156 10.5359L5.79215 10.4271C5.98215 10.3594 6.19097 10.24 6.22333 10.2194C6.28333 10.1824 6.29039 9.92353 6.29039 9.92353C6.29392 9.55353 6.14509 9.70118 6.07039 9.73883C6.02862 9.75942 5.87097 9.75647 5.72862 9.75118L5.71391 9.60236L5.66568 9.40765C5.72803 9.38765 5.77392 9.36883 5.8798 9.35353L6.11568 9.32295ZM5.82862 10.5877C5.82695 10.5887 5.82506 10.5893 5.82311 10.5894C5.82116 10.5895 5.81921 10.5891 5.81744 10.5882L5.81039 10.5841L5.80862 10.5818C5.80686 10.5835 5.81215 10.5853 5.82862 10.5877ZM9.30215 9.32295C9.56333 9.28589 9.59627 9.02706 9.59627 9.02706C9.6045 8.84236 9.44509 8.78647 9.24274 8.78177C9.13391 8.77706 8.55744 8.82353 8.30039 8.84236H8.28744L8.30039 9.41177L8.30333 9.97177L8.29333 11.3094L9.36803 11.3159C9.6298 11.3159 9.67862 10.8724 9.4498 10.65C9.42156 10.5888 9.00921 10.5729 8.9945 10.5824C8.99274 10.5812 8.99039 10.5777 8.98803 10.5365L8.97862 10.4277C9.16862 10.36 9.37686 10.2406 9.4098 10.22C9.46921 10.1829 9.47686 9.92412 9.47686 9.92412C9.48039 9.55412 9.33156 9.70177 9.25686 9.73942C9.21509 9.76 9.05744 9.75706 8.91568 9.75177C8.91035 9.70218 8.90525 9.65258 8.90039 9.60295L8.85215 9.40824C8.91391 9.38824 8.96039 9.36942 9.06627 9.35412C9.18391 9.33824 9.26627 9.32706 9.30215 9.32295ZM9.01568 10.5877C9.01389 10.5886 9.0119 10.5892 9.00986 10.5893C9.00783 10.5894 9.00579 10.589 9.00391 10.5882L8.99686 10.5841L8.99509 10.5818C8.99333 10.5835 8.99921 10.5853 9.01568 10.5877ZM14.6033 9.32295C14.8645 9.28589 14.8974 9.02706 14.8974 9.02706C14.9057 8.84236 14.7463 8.78647 14.5439 8.78177C14.4351 8.77706 13.8586 8.82353 13.6016 8.84177H13.5886L13.6016 9.41118L13.6045 9.97118L13.5945 11.3088L14.6692 11.3153C14.9304 11.3153 14.9792 10.8718 14.751 10.6494C14.7227 10.5882 14.3104 10.5724 14.2957 10.5818C14.2933 10.5806 14.2916 10.5771 14.2892 10.5359L14.2798 10.4277C14.4698 10.36 14.6786 10.24 14.7116 10.2194C14.7716 10.1824 14.7786 9.92353 14.7786 9.92353C14.7822 9.55353 14.6333 9.70118 14.5586 9.73883C14.5169 9.75942 14.3586 9.75647 14.2163 9.75118L14.2016 9.60236L14.1533 9.40765C14.2157 9.38765 14.2616 9.36883 14.3674 9.35353L14.6033 9.32295ZM14.3163 10.5877C14.3145 10.5886 14.3125 10.5892 14.3105 10.5893C14.3084 10.5894 14.3064 10.589 14.3045 10.5882L14.2974 10.5841L14.2957 10.5818C14.2939 10.5835 14.2998 10.5853 14.3163 10.5877ZM12.941 8.88471C12.8786 8.89706 12.8257 8.99706 12.7745 9.16412C12.7439 9.26798 12.7164 9.37273 12.6922 9.47824L12.6445 9.68353L12.6186 9.79765L12.6092 9.85706C12.5727 9.95 12.5539 9.94706 12.5139 9.83765L12.4004 9.56059L12.2386 9.13412C12.1616 8.9353 11.8957 8.9253 11.8957 8.9253C11.5186 8.96059 11.941 9.89706 12.0663 10.2829C12.1016 10.3865 12.1692 10.6318 12.2539 10.9471C12.2751 11.0259 12.2921 11.1247 12.3369 11.1353C12.3798 11.1641 12.4169 11.2012 12.5227 11.2088C12.5889 11.2058 12.653 11.1842 12.7074 11.1465C12.7557 11.1271 12.7833 10.9859 12.8227 10.9112L13.4833 9.3C13.5545 9.12648 13.4922 8.98824 13.3651 8.92765C13.2404 8.86412 13.0627 8.87059 12.941 8.88471ZM16.0845 10.5759C16.0822 10.5859 16.0722 10.5953 16.0557 10.6047C16.0202 10.6272 15.9806 10.6424 15.9392 10.6494C15.9122 10.5894 15.8974 10.5647 15.878 10.2941L15.8022 9.47471C15.7651 9.11412 15.5069 9.06942 15.5069 9.06942C15.1369 9.04706 15.2851 9.94824 15.3222 10.3994L15.3292 10.5124L15.3569 10.7694L15.3886 11.0882C15.3945 11.1459 15.4004 11.2059 15.4057 11.2682C15.4451 11.2971 15.5239 11.2841 15.5822 11.2941C15.831 11.3 16.1463 11.3018 16.4422 11.1094C16.5627 11.0535 16.6427 10.9318 16.738 10.8347C16.8116 10.7247 16.8598 10.6006 16.9133 10.48C17.0227 10.0018 17.0104 9.55177 16.7786 9.15059C16.6928 9.01732 16.5766 8.9064 16.4394 8.82702C16.3022 8.74764 16.1481 8.70208 15.9898 8.69412C15.7333 8.68118 15.6045 8.85295 15.6345 8.9853C15.6633 9.12412 15.7827 9.25177 15.8827 9.35942C15.9439 9.40942 16.0974 9.42295 16.1804 9.56648C16.2086 9.60589 16.2204 9.68236 16.251 9.74706L16.281 10.0247C16.2674 10.2094 16.2586 10.4047 16.1551 10.5041C16.1439 10.5371 16.0922 10.5665 16.0845 10.5759Z" fill="#141414"/>
</svg>
