<svg width="14" height="14" viewBox="0 0 14 14" fill="none" xmlns="http://www.w3.org/2000/svg">
<g clip-path="url(#clip0_94_66)">
<path d="M12.4407 1.17731C12.3426 1.0792 12.1834 1.07912 12.0852 1.17731L9.47854 3.78388C9.44337 3.81904 9.41942 3.86383 9.40971 3.9126C9.40001 3.96137 9.40498 4.01192 9.42401 4.05787C9.44304 4.10381 9.47527 4.14307 9.51662 4.17069C9.55797 4.19832 9.60658 4.21305 9.65631 4.21304C9.68933 4.21308 9.72203 4.2066 9.75254 4.19397C9.78305 4.18134 9.81077 4.1628 9.8341 4.13943L12.4407 1.53286C12.5389 1.43464 12.5389 1.27548 12.4407 1.17731ZM13.1496 1.87499C13.1024 1.82786 13.0385 1.80139 12.9718 1.80139C12.9052 1.80139 12.8412 1.82786 12.7941 1.87499L10.1874 4.48161C10.1403 4.52877 10.1138 4.59271 10.1138 4.65938C10.1138 4.72606 10.1403 4.79 10.1874 4.83716C10.2107 4.86053 10.2384 4.87907 10.269 4.8917C10.2995 4.90433 10.3322 4.91081 10.3652 4.91077C10.3982 4.91081 10.4309 4.90433 10.4614 4.8917C10.4919 4.87907 10.5197 4.86053 10.543 4.83716L13.1496 2.23051C13.173 2.20717 13.1915 2.17946 13.2041 2.14895C13.2167 2.11845 13.2232 2.08576 13.2232 2.05275C13.2232 2.01973 13.2167 1.98704 13.2041 1.95654C13.1915 1.92604 13.173 1.89833 13.1496 1.87499Z" fill="#141414" stroke="#141414" stroke-width="0.2"/>
<path d="M10.6906 6.27671L13.9264 3.0409C13.9497 3.01756 13.9682 2.98984 13.9809 2.95934C13.9935 2.92884 14 2.89614 14 2.86313C14 2.83011 13.9935 2.79742 13.9809 2.76692C13.9682 2.73641 13.9497 2.7087 13.9264 2.68535C13.8281 2.58724 13.669 2.58716 13.5708 2.68535L10.3351 5.92116C9.93641 6.31977 9.32686 6.42436 8.8183 6.1815C8.76908 6.15798 8.71355 6.15111 8.66008 6.16193C8.60662 6.17275 8.55813 6.20066 8.52192 6.24146L7.42246 7.48022C7.42202 7.48068 7.42153 7.48109 7.42109 7.48158C7.42065 7.48208 7.42032 7.48259 7.41988 7.48309L2.66784 12.8369L2.66426 12.8411C2.64978 12.8582 2.63462 12.8747 2.61881 12.8906C2.30505 13.2044 1.79454 13.2044 1.4809 12.8906C1.32893 12.7387 1.24523 12.5366 1.24523 12.3217C1.24523 12.1068 1.32893 11.9047 1.48118 11.7524C1.49698 11.7367 1.51342 11.7216 1.53048 11.7072C1.5319 11.706 1.53327 11.7048 1.53463 11.7036L4.50548 9.06676C4.55534 9.0225 4.58558 8.96024 4.58955 8.89368C4.59351 8.82713 4.57087 8.76173 4.52662 8.71186C4.43444 8.60798 4.27552 8.59849 4.17172 8.69072L1.20285 11.3258C1.17608 11.3486 1.15023 11.3724 1.12538 11.3972C0.878439 11.6441 0.742432 11.9724 0.742432 12.3217C0.742432 12.6709 0.878412 12.9992 1.12535 13.2462C1.38028 13.501 1.71505 13.6285 2.0499 13.6285C2.38462 13.6285 2.71947 13.5011 2.9742 13.2463C2.99907 13.2214 3.02294 13.1955 3.04573 13.1687L6.66692 9.08882L10.2882 13.1687C10.3109 13.1955 10.3347 13.2214 10.3595 13.2462C10.6144 13.5011 10.9492 13.6285 11.284 13.6285C11.6188 13.6285 11.9536 13.5011 12.2085 13.2462C12.7182 12.7364 12.7182 11.907 12.2087 11.3974C12.1838 11.3725 12.1579 11.3487 12.131 11.3259L7.96411 7.62738L8.77936 6.70885C9.4399 6.94288 10.1873 6.77986 10.6906 6.27671ZM11.7992 11.7037L11.8034 11.7072C11.8205 11.7217 11.837 11.7369 11.8529 11.7527C12.1666 12.0664 12.1667 12.5769 11.853 12.8906C11.5392 13.2043 11.0287 13.2043 10.7149 12.8905C10.6978 12.8733 10.6814 12.8554 10.6659 12.8369L7.00303 8.71008L7.63027 8.00338L11.7992 11.7037Z" fill="#141414" stroke="#141414" stroke-width="0.2"/>
<path d="M11.6861 0.445103C11.639 0.397978 11.575 0.371506 11.5084 0.371506C11.4417 0.371506 11.3778 0.397978 11.3306 0.445103L8.09484 3.68094C7.59155 4.18417 7.42858 4.9315 7.66262 5.59218L6.66689 6.47599L5.70992 5.62658C6.20481 4.65281 6.02415 3.4705 5.239 2.68532C4.45922 1.90553 3.556 1.35677 2.69574 1.14018C1.79768 0.914131 1.02774 1.06504 0.527513 1.56524C0.0272862 2.06544 -0.123651 2.83549 0.102454 3.73349C0.319071 4.5937 0.867806 5.49692 1.64765 6.27668C2.4328 7.06188 3.61509 7.24254 4.58891 6.74762L5.53661 7.81534C5.56019 7.84195 5.58915 7.86325 5.62159 7.87782C5.65402 7.89239 5.68918 7.89989 5.72474 7.89983C5.78623 7.8999 5.8456 7.87734 5.89154 7.83645L8.13006 5.84954C8.17085 5.81333 8.19875 5.76483 8.20957 5.71137C8.22039 5.65791 8.21353 5.60238 8.19002 5.55316C7.9471 5.04454 8.05172 4.43505 8.45036 4.03646L11.6861 0.800654C11.7095 0.777309 11.728 0.749594 11.7406 0.719091C11.7533 0.688588 11.7598 0.655895 11.7598 0.622879C11.7598 0.589862 11.7533 0.557169 11.7406 0.526666C11.728 0.496163 11.7095 0.468448 11.6861 0.445103ZM5.74577 7.29359L4.83063 6.26257C4.79136 6.21832 4.73775 6.18934 4.67922 6.18072C4.62069 6.17211 4.561 6.18442 4.51065 6.21548C3.70461 6.71251 2.67348 6.59157 2.00312 5.92118C1.2866 5.20469 0.784763 4.38419 0.589993 3.61072C0.408841 2.89111 0.512911 2.29092 0.883063 1.92079C1.25316 1.55061 1.85336 1.4466 2.57293 1.62778C3.34641 1.82252 4.16697 2.32433 4.88343 3.04085C5.55379 3.71118 5.67475 4.74231 5.1777 5.54835C5.14666 5.5987 5.13436 5.65839 5.14297 5.71691C5.15159 5.77543 5.18055 5.82905 5.22479 5.86833L6.28813 6.81212L5.74577 7.29359Z" fill="#141414" stroke="#141414" stroke-width="0.2"/>
</g>
<defs>
<clipPath id="clip0_94_66">
<rect width="14" height="14" fill="white"/>
</clipPath>
</defs>
</svg>
