<svg width="14" height="14" viewBox="0 0 14 14" fill="none" xmlns="http://www.w3.org/2000/svg">
<path d="M0.4375 3.65345H7.5609C7.75739 4.44735 8.47555 5.03778 9.3293 5.03778C10.1831 5.03778 10.9012 4.44735 11.0977 3.65345H13.5625C13.8041 3.65345 14 3.45756 14 3.21595C14 2.97434 13.8041 2.77845 13.5625 2.77845H11.0977C10.9012 1.98455 10.1831 1.39409 9.32928 1.39409C8.4755 1.39409 7.75734 1.98455 7.56087 2.77845H0.4375C0.195891 2.77845 0 2.97434 0 3.21595C0 3.45756 0.195891 3.65345 0.4375 3.65345ZM9.3293 2.26909C9.85141 2.26909 10.2762 2.69385 10.2762 3.21592C10.2762 3.73802 9.85141 4.16278 9.3293 4.16278C8.8072 4.16278 8.38245 3.73802 8.38245 3.21592C8.38245 2.69385 8.8072 2.26909 9.3293 2.26909ZM0.4375 7.43749H2.90232C3.09881 8.23139 3.81694 8.82183 4.67072 8.82183C5.5245 8.82183 6.24263 8.23139 6.43913 7.43749H13.5625C13.8041 7.43749 14 7.2416 14 6.99999C14 6.75839 13.8041 6.56249 13.5625 6.56249H6.4391C6.24261 5.7686 5.52448 5.17814 4.6707 5.17814C3.81691 5.17814 3.09879 5.7686 2.90229 6.56249H0.4375C0.195891 6.56249 0 6.75839 0 6.99999C0 7.2416 0.195863 7.43749 0.4375 7.43749ZM4.6707 6.05314C5.1928 6.05314 5.61755 6.47789 5.61755 6.99999C5.61755 7.52207 5.1928 7.94683 4.6707 7.94683C4.14859 7.94683 3.72384 7.52207 3.72384 6.99999C3.72384 6.47789 4.14859 6.05314 4.6707 6.05314ZM13.5625 10.3465H11.0977C10.9012 9.55264 10.1831 8.96218 9.32928 8.96218C8.4755 8.96218 7.75737 9.55264 7.56087 10.3465H0.4375C0.195891 10.3465 0 10.5424 0 10.784C0 11.0257 0.195891 11.2215 0.4375 11.2215H7.5609C7.75739 12.0154 8.47552 12.6059 9.3293 12.6059C10.1831 12.6059 10.9012 12.0154 11.0977 11.2215H13.5625C13.8041 11.2215 14 11.0257 14 10.784C14 10.5424 13.8041 10.3465 13.5625 10.3465ZM9.3293 11.7309C8.8072 11.7309 8.38245 11.3061 8.38245 10.784C8.38245 10.2619 8.8072 9.83718 9.3293 9.83718C9.85141 9.83718 10.2762 10.2619 10.2762 10.784C10.2762 11.3061 9.85141 11.7309 9.3293 11.7309Z" fill="white"/>
</svg>
