<svg width="20" height="20" viewBox="0 0 20 20" fill="none" xmlns="http://www.w3.org/2000/svg">
<g clip-path="url(#clip0_2_58)">
<path d="M17.9167 3.33331H9.99999C9.95527 3.33331 9.91085 3.34034 9.86832 3.35413L9.76832 3.38745C9.54996 3.46011 9.43183 3.69601 9.50449 3.91433L9.50582 3.91827L13.6941 16.1575L10.9358 19.3091C10.7844 19.4824 10.8021 19.7457 10.9754 19.8971C11.0514 19.9635 11.149 20.0001 11.25 20H17.9166C19.0673 20 20 19.0673 20 17.9167V5.41667C20 4.26605 19.0673 3.33331 17.9167 3.33331Z" fill="#ECEFF1"/>
<path d="M14.5458 16.0775C14.5127 16.0047 14.4594 15.943 14.3921 15.8997C14.3249 15.8564 14.2466 15.8333 14.1666 15.8333H9.99999C9.76988 15.8333 9.58331 16.0199 9.58331 16.25C9.58331 16.3001 9.59234 16.3498 9.60999 16.3967L10.86 19.73C10.8854 19.7975 10.9278 19.8572 10.9832 19.9033C11.0385 19.9495 11.1049 19.9805 11.1758 19.9933C11.2003 19.9975 11.2251 19.9998 11.25 20C11.3094 19.9999 11.368 19.9872 11.4221 19.9626C11.4761 19.938 11.5243 19.9022 11.5633 19.8575L14.48 16.5242C14.5327 16.4639 14.567 16.3897 14.5786 16.3105C14.5903 16.2313 14.5789 16.1504 14.5458 16.0775Z" fill="#1976D2"/>
<path d="M17.9167 9.16667H12.0833C11.8532 9.16667 11.6666 8.98011 11.6666 8.74999C11.6666 8.51988 11.8532 8.33331 12.0833 8.33331H17.9166C18.1467 8.33331 18.3333 8.51988 18.3333 8.74999C18.3333 8.98011 18.1468 9.16667 17.9167 9.16667Z" fill="#455A64"/>
<path d="M14.5833 9.16668C14.3532 9.16668 14.1666 8.98012 14.1666 8.75V7.91668C14.1666 7.68656 14.3532 7.5 14.5833 7.5C14.8134 7.5 15 7.68656 15 7.91668V8.75C15 8.98012 14.8134 9.16668 14.5833 9.16668ZM13.3333 14.1667C13.1032 14.1665 12.9168 13.9798 12.917 13.7496C12.9171 13.6834 12.933 13.618 12.9633 13.5591C12.9937 13.5002 13.0377 13.4494 13.0917 13.4109C14.9167 12.1142 16.25 9.47082 16.25 8.75C16.25 8.51988 16.4366 8.33332 16.6667 8.33332C16.8968 8.33332 17.0834 8.51988 17.0834 8.75C17.0834 9.84832 15.4775 12.7383 13.575 14.0892C13.5045 14.1395 13.42 14.1666 13.3333 14.1667Z" fill="#455A64"/>
<path d="M16.6667 15C16.5624 15.0001 16.4619 14.9612 16.385 14.8908C16.0833 14.6141 13.42 12.1541 12.9475 10.99C12.8607 10.7767 12.9633 10.5334 13.1767 10.4467C13.39 10.3599 13.6332 10.4625 13.72 10.6759C14.0608 11.5159 16.1667 13.5592 16.9492 14.275C17.1194 14.4298 17.132 14.6933 16.9773 14.8636C16.9379 14.9069 16.89 14.9413 16.8365 14.9648C16.7829 14.9883 16.7251 15.0003 16.6667 15Z" fill="#455A64"/>
<path d="M14.5608 16.115L9.14418 0.28168C9.11604 0.199499 9.06291 0.128168 8.99224 0.0776634C8.92156 0.0271587 8.83687 5.11308e-06 8.75 0L2.08332 0C0.932734 0 0 0.932734 0 2.08332V14.5833C0 15.7339 0.932734 16.6666 2.08332 16.6666H14.1666C14.3968 16.6666 14.5833 16.4801 14.5833 16.25C14.5833 16.204 14.5757 16.1584 14.5608 16.115Z" fill="#2196F3"/>
<path d="M7.91668 11.6667C7.8307 11.6667 7.74683 11.6401 7.67655 11.5906C7.60628 11.541 7.55306 11.471 7.52418 11.39L5.83336 6.655L4.14254 11.39C4.05649 11.6034 3.81371 11.7067 3.60027 11.6206C3.50317 11.5815 3.42436 11.5072 3.37953 11.4126C3.33471 11.318 3.32715 11.2099 3.35836 11.11L5.44168 5.27668C5.5436 5.06016 5.80176 4.96723 6.01828 5.0691C6.10951 5.11205 6.18291 5.18545 6.22586 5.27668L8.30918 11.11C8.38676 11.3261 8.27496 11.5642 8.05918 11.6425C8.01343 11.6587 7.96522 11.6669 7.91668 11.6667Z" fill="#FAFAFA"/>
<path d="M6.66667 9.16667H4.99999C4.76988 9.16667 4.58331 8.98011 4.58331 8.74999C4.58331 8.51988 4.76988 8.33331 4.99999 8.33331H6.66667C6.89679 8.33331 7.08335 8.51988 7.08335 8.74999C7.08331 8.98011 6.89679 9.16667 6.66667 9.16667Z" fill="#FAFAFA"/>
</g>
<defs>
<clipPath id="clip0_2_58">
<rect width="20" height="20" fill="white"/>
</clipPath>
</defs>
</svg>
