<svg width="16" height="16" viewBox="0 0 16 16" fill="none" xmlns="http://www.w3.org/2000/svg">
<g clip-path="url(#clip0_37_4812)">
<path d="M13.1612 10.1187V7.07871C13.1612 4.82065 11.716 2.85163 9.72633 2.11615C9.74956 2.00001 9.76245 1.88132 9.76245 1.76259C9.76249 0.789693 8.9728 0 7.9999 0C7.02701 0 6.23731 0.789693 6.23731 1.76259C6.23731 1.87873 6.2502 1.99483 6.27084 2.10581C5.58699 2.34839 4.95473 2.7329 4.41538 3.25419C3.39862 4.23484 2.83862 5.55354 2.83862 6.96774V10.1187C2.83862 10.2297 2.7483 10.3226 2.63474 10.3226C1.68248 10.3226 0.869562 11.04 0.781818 11.9536C0.732775 12.462 0.900548 12.9678 1.24377 13.3445C1.5844 13.7187 2.07216 13.9355 2.58052 13.9355H5.6928C5.82183 15.0942 6.80765 16 7.9999 16C9.19216 16 10.178 15.0942 10.307 13.9355H13.4193C13.9277 13.9355 14.4154 13.7187 14.756 13.3445C15.0967 12.9678 15.2644 12.462 15.218 11.9536C15.1302 11.04 14.3148 10.3226 13.3651 10.3226C13.3383 10.3228 13.3117 10.3176 13.2869 10.3074C13.2621 10.2972 13.2395 10.2822 13.2206 10.2632C13.2016 10.2443 13.1866 10.2217 13.1764 10.1969C13.1662 10.1721 13.161 10.1455 13.1612 10.1187ZM7.9999 1.03224C8.40246 1.03224 8.73021 1.35998 8.73021 1.76255C8.73021 1.79607 8.72504 1.82706 8.71987 1.86059C8.54438 1.83477 8.36631 1.81672 8.18823 1.81155C7.88113 1.8012 7.5792 1.82189 7.27985 1.86318C7.27468 1.82965 7.26951 1.79866 7.26951 1.76513C7.2696 1.35998 7.59734 1.03224 7.9999 1.03224ZM7.9999 14.9677C7.37798 14.9677 6.85669 14.5238 6.73538 13.9355H9.26439C9.14316 14.5239 8.62187 14.9677 7.9999 14.9677ZM14.1909 12.0516C14.2115 12.2736 14.1418 12.4877 13.9947 12.6503C13.8425 12.8129 13.6412 12.9032 13.4193 12.9032H2.58056C2.35862 12.9032 2.15736 12.8129 2.00764 12.6503C1.85797 12.4877 1.78829 12.2735 1.80893 12.0516C1.84504 11.6619 2.20895 11.3548 2.63474 11.3548C3.31604 11.3548 3.87086 10.8 3.87086 10.1187V6.96774C3.87086 5.83741 4.31988 4.78195 5.1328 3.99742C5.90957 3.24647 6.92121 2.8387 7.9999 2.8387C8.05153 2.8387 8.10053 2.8387 8.15216 2.84128C10.3431 2.91869 12.1289 4.82065 12.1289 7.07871V10.1187C12.1289 10.8 12.6838 11.3548 13.3651 11.3548C13.7909 11.3548 14.1522 11.6619 14.1909 12.0516Z" fill="black" fill-opacity="0.8"/>
</g>
<defs>
<clipPath id="clip0_37_4812">
<rect width="16" height="16" fill="white"/>
</clipPath>
</defs>
</svg>
