<svg width="14" height="14" viewBox="0 0 14 14" fill="none" xmlns="http://www.w3.org/2000/svg">
<g clip-path="url(#clip0_94_53)">
<path d="M13.0691 7.18133C13.0413 7.12493 13.0268 7.06289 13.0268 7C13.0268 6.93712 13.0413 6.87508 13.0691 6.81868L13.5912 5.7505C13.882 5.15575 13.6516 4.44687 13.0668 4.1366L12.0166 3.57934C11.9609 3.55004 11.9128 3.50835 11.8758 3.45748C11.8389 3.40661 11.8141 3.34793 11.8034 3.28597L11.598 2.11487C11.4836 1.46283 10.8805 1.02468 10.2251 1.1174L9.04791 1.28392C8.98568 1.29292 8.92221 1.28749 8.86241 1.26806C8.80261 1.24862 8.74808 1.2157 8.70303 1.17184L7.84851 0.345191C7.37271 -0.115111 6.62732 -0.115138 6.15154 0.345191L5.297 1.17192C5.25194 1.21578 5.19741 1.24869 5.13761 1.26812C5.07781 1.28756 5.01435 1.29299 4.95212 1.28401L3.77489 1.11748C3.11933 1.02471 2.5164 1.46291 2.40203 2.11495L2.19662 3.28599C2.18595 3.34796 2.16117 3.40664 2.12422 3.45751C2.08726 3.50839 2.03911 3.55008 1.98348 3.57939L0.933211 4.13665C0.348441 4.44689 0.118099 5.15583 0.408816 5.75058L0.930942 6.81873C0.958734 6.87514 0.973189 6.93718 0.973189 7.00006C0.973189 7.06294 0.958734 7.12498 0.930942 7.18139L0.408788 8.24954C0.118071 8.84429 0.348414 9.55317 0.933184 9.86344L1.98345 10.4207C2.03909 10.45 2.08725 10.4917 2.12421 10.5426C2.16117 10.5934 2.18595 10.6521 2.19662 10.7141L2.40203 11.8852C2.50615 12.4787 3.01512 12.895 3.60009 12.895C3.6577 12.895 3.71616 12.8909 3.77492 12.8826L4.95214 12.7161C5.01438 12.7071 5.07785 12.7125 5.13765 12.7319C5.19745 12.7514 5.25198 12.7843 5.29703 12.8282L6.15154 13.6548C6.38949 13.885 6.6947 14.0001 7.00002 14C7.30525 14 7.61065 13.8849 7.84849 13.6548L8.70303 12.8282C8.79523 12.739 8.9209 12.6983 9.04791 12.7161L10.2251 12.8826C10.8808 12.9754 11.4836 12.5372 11.598 11.8851L11.8034 10.7141C11.8141 10.6521 11.8389 10.5934 11.8758 10.5426C11.9128 10.4917 11.9609 10.45 12.0166 10.4207L13.0668 9.86344C13.6516 9.5532 13.882 8.84426 13.5912 8.24951L13.0691 7.18133ZM12.6884 9.15013L11.6381 9.70739C11.3033 9.8851 11.0736 10.2011 11.0081 10.5745L10.8027 11.7456C10.7846 11.8513 10.7259 11.9458 10.6391 12.0088C10.5523 12.0719 10.4444 12.0985 10.3382 12.0831L9.16101 11.9166C8.78558 11.8634 8.41409 11.9842 8.14161 12.2478L7.28707 13.0744C7.21027 13.1493 7.10726 13.1912 7 13.1912C6.89275 13.1912 6.78974 13.1493 6.71294 13.0744L5.85842 12.2477C5.62813 12.025 5.32708 11.9043 5.01279 11.9043C4.95521 11.9043 4.89716 11.9083 4.83902 11.9165L3.6618 12.0831C3.55566 12.0985 3.4477 12.0718 3.36093 12.0088C3.27416 11.9457 3.21545 11.8513 3.19732 11.7456L2.99188 10.5745C2.92637 10.2011 2.69674 9.88501 2.36186 9.70736L1.31159 9.1501C1.21664 9.10021 1.14494 9.01519 1.11179 8.91318C1.07864 8.81118 1.08667 8.70025 1.13416 8.60408L1.65631 7.5359C1.82278 7.19531 1.82278 6.80468 1.65631 6.46408L1.13416 5.39591C1.08667 5.29973 1.07864 5.18881 1.11179 5.0868C1.14494 4.98479 1.21664 4.89977 1.31159 4.84988L2.36186 4.29262C2.69671 4.11492 2.92637 3.79888 2.99186 3.42547L3.19726 2.2544C3.21537 2.14868 3.27408 2.05422 3.36085 1.99118C3.44763 1.92813 3.5556 1.90149 3.66175 1.91693L4.83897 2.08345C5.21426 2.13658 5.58589 2.0158 5.85837 1.75224L6.71291 0.925586C6.78971 0.850718 6.89272 0.808816 6.99997 0.808816C7.10723 0.808816 7.21024 0.850718 7.28704 0.925586L8.14155 1.75224C8.41403 2.01583 8.78561 2.13658 9.16095 2.08345L10.3382 1.91693C10.4443 1.9015 10.5523 1.92815 10.6391 1.99119C10.7258 2.05424 10.7845 2.14869 10.8027 2.2544L11.0081 3.4255C11.0736 3.79891 11.3032 4.11497 11.6381 4.29262L12.6884 4.84988C12.7833 4.89977 12.855 4.98479 12.8882 5.0868C12.9213 5.18881 12.9133 5.29973 12.8658 5.39591L12.3436 6.46406C12.1772 6.80462 12.1772 7.19531 12.3436 7.53587L12.8658 8.60402C12.9133 8.7002 12.9213 8.81114 12.8882 8.91317C12.855 9.01519 12.7833 9.10022 12.6884 9.15013Z" fill="#141414"/>
<path d="M9.94995 4.05003C9.79231 3.89237 9.53665 3.89237 9.37899 4.05003L4.05002 9.37902C3.89236 9.53669 3.89236 9.79232 4.05002 9.94998C4.08747 9.98753 4.13197 10.0173 4.18096 10.0376C4.22995 10.0579 4.28246 10.0683 4.33549 10.0682C4.43879 10.0682 4.54215 10.0288 4.62096 9.94998L9.94992 4.62102C10.1076 4.46333 10.1076 4.20772 9.94995 4.05003ZM5.38507 3.36644C4.56881 3.36644 3.90472 4.03053 3.90472 4.84679C3.90472 5.66306 4.56881 6.32715 5.38507 6.32715C6.20133 6.32715 6.86543 5.66306 6.86543 4.84679C6.86543 4.03053 6.20133 3.36644 5.38507 3.36644ZM5.38507 5.51967C5.01405 5.51967 4.7122 5.21782 4.7122 4.84677C4.7122 4.47574 5.01405 4.1739 5.38507 4.1739C5.7561 4.1739 6.05797 4.47574 6.05797 4.84677C6.05794 5.21782 5.7561 5.51967 5.38507 5.51967ZM8.6149 7.67289C7.79864 7.67289 7.13454 8.33698 7.13454 9.15325C7.13454 9.96951 7.79864 10.6336 8.6149 10.6336C9.43116 10.6336 10.0953 9.96951 10.0953 9.15325C10.0953 8.33698 9.43116 7.67289 8.6149 7.67289ZM8.6149 9.82612C8.24387 9.82612 7.942 9.52427 7.942 9.15325C7.942 8.78222 8.24385 8.48037 8.6149 8.48037C8.98592 8.48037 9.28777 8.78222 9.28777 9.15325C9.28777 9.52427 8.98592 9.82612 8.6149 9.82612Z" fill="#141414"/>
</g>
<defs>
<clipPath id="clip0_94_53">
<rect width="14" height="14" fill="white"/>
</clipPath>
</defs>
</svg>
