<svg width="16" height="16" viewBox="0 0 16 16" fill="none" xmlns="http://www.w3.org/2000/svg">
<g opacity="0.8" clip-path="url(#clip0_36_4511)">
<path d="M8.74667 16H7.25333C7.00918 15.9998 6.77357 15.9101 6.59103 15.748C6.40849 15.5858 6.29168 15.3624 6.26267 15.12L6.10333 13.8693C5.78851 13.7671 5.48223 13.6403 5.18733 13.49L4.19133 14.264C3.99902 14.4152 3.75775 14.4902 3.51363 14.4747C3.26951 14.4592 3.03965 14.3543 2.868 14.18L1.818 13.13C1.64468 12.9585 1.54058 12.7292 1.52557 12.4859C1.51057 12.2425 1.58572 12.0021 1.73667 11.8107L2.51067 10.814C2.3598 10.5194 2.23294 10.213 2.13133 9.898L0.878 9.73867C0.635883 9.70876 0.41303 9.59144 0.251343 9.40876C0.0896561 9.22608 0.000272987 8.99062 0 8.74667L0 7.25333C0 6.74867 0.378 6.32267 0.88 6.26267L2.13067 6.10333C2.23285 5.78851 2.35969 5.48223 2.51 5.18733L1.73667 4.19133C1.58511 3.99901 1.50993 3.75749 1.52556 3.51313C1.54119 3.26876 1.64652 3.03879 1.82133 2.86733L2.87133 1.81733C3.04289 1.64414 3.27218 1.54013 3.51549 1.52513C3.75881 1.51014 3.99914 1.58519 4.19067 1.736L5.18667 2.51067C5.48174 2.36024 5.78825 2.2334 6.10333 2.13133L6.26267 0.878C6.32267 0.378 6.74867 0 7.25333 0H8.74667C9.25133 0 9.67733 0.378 9.73733 0.88L9.89667 2.13067C10.2153 2.234 10.522 2.36133 10.8133 2.51L11.8093 1.736C12.0016 1.58463 12.243 1.50957 12.4872 1.52519C12.7314 1.54082 12.9612 1.64603 13.1327 1.82067L14.1827 2.87067C14.5407 3.218 14.5767 3.78667 14.264 4.19L13.49 5.18667C13.6393 5.478 13.7667 5.78467 13.8693 6.10267L15.1227 6.262C15.3646 6.2919 15.5873 6.40916 15.7489 6.59171C15.9104 6.77427 15.9997 7.00955 16 7.25333V8.74667C16 9.25133 15.622 9.67733 15.12 9.73733L13.8693 9.89667C13.7671 10.2115 13.6403 10.5178 13.49 10.8127L14.264 11.8087C14.4154 12.0009 14.4904 12.2423 14.4748 12.4865C14.4592 12.7307 14.354 12.9606 14.1793 13.132L13.1293 14.182C12.9579 14.3555 12.7286 14.4596 12.4852 14.4747C12.2418 14.4897 12.0014 14.4144 11.81 14.2633L10.8133 13.4893C10.5187 13.6402 10.2124 13.7671 9.89733 13.8687L9.738 15.122C9.70825 15.3641 9.59106 15.5869 9.40849 15.7486C9.22592 15.9103 8.99055 15.9997 8.74667 16ZM5.15333 12.76C5.20867 12.76 5.26533 12.774 5.316 12.802C5.69015 13.0103 6.08697 13.1749 6.49867 13.2927C6.56125 13.3106 6.61721 13.3465 6.65962 13.3959C6.70204 13.4453 6.72905 13.5061 6.73733 13.5707L6.924 15.0373C6.944 15.2047 7.08867 15.3333 7.25333 15.3333H8.74667C8.82749 15.3322 8.90522 15.3021 8.96558 15.2483C9.02595 15.1945 9.06492 15.1208 9.07533 15.0407L9.26267 13.5713C9.27095 13.5068 9.29797 13.446 9.34038 13.3966C9.38279 13.3472 9.43875 13.3113 9.50133 13.2933C9.91303 13.1756 10.3099 13.0109 10.684 12.8027C10.7411 12.7708 10.8063 12.7564 10.8716 12.7614C10.9368 12.7664 10.9991 12.7905 11.0507 12.8307L12.2173 13.7373C12.2802 13.7879 12.3594 13.8136 12.44 13.8094C12.5205 13.8052 12.5967 13.7715 12.654 13.7147L13.7107 12.658C13.7685 12.6008 13.8031 12.5242 13.8079 12.443C13.8127 12.3618 13.7873 12.2816 13.7367 12.218L12.83 11.0513C12.7899 10.9997 12.7658 10.9374 12.7609 10.8722C12.7559 10.807 12.7702 10.7418 12.802 10.6847C13.0103 10.3105 13.1749 9.9137 13.2927 9.502C13.3106 9.43941 13.3465 9.38346 13.3959 9.34105C13.4453 9.29863 13.5061 9.27162 13.5707 9.26333L15.0373 9.07667C15.1182 9.06656 15.1926 9.0276 15.247 8.96697C15.3014 8.90634 15.332 8.82811 15.3333 8.74667V7.25333C15.3322 7.17251 15.3021 7.09479 15.2483 7.03442C15.1945 6.97405 15.1208 6.93508 15.0407 6.92467L13.5713 6.73733C13.5068 6.72905 13.446 6.70204 13.3966 6.65962C13.3472 6.61721 13.3113 6.56125 13.2933 6.49867C13.1756 6.08697 13.0109 5.69015 12.8027 5.316C12.7706 5.25895 12.7561 5.19368 12.7611 5.12843C12.7661 5.06317 12.7903 5.00085 12.8307 4.94933L13.7373 3.78267C13.7881 3.72008 13.8139 3.64093 13.8099 3.56045C13.8058 3.47997 13.7721 3.40383 13.7153 3.34667L12.6587 2.29C12.6017 2.23179 12.525 2.19688 12.4437 2.19208C12.3623 2.18727 12.2821 2.21291 12.2187 2.264L11.052 3.17067C11.0003 3.21092 10.9379 3.23504 10.8726 3.24002C10.8072 3.245 10.7419 3.23062 10.6847 3.19867C10.3106 2.99021 9.91377 2.82557 9.502 2.708C9.43941 2.69004 9.38346 2.65414 9.34105 2.60473C9.29863 2.55533 9.27162 2.49458 9.26333 2.43L9.07667 0.963333C9.0667 0.882393 9.02781 0.807784 8.96717 0.753263C8.90652 0.698742 8.82821 0.667986 8.74667 0.666667H7.25333C7.17251 0.667757 7.09479 0.697948 7.03442 0.751703C6.97405 0.805459 6.93508 0.879175 6.92467 0.959333L6.73733 2.42867C6.72901 2.49331 6.70199 2.55412 6.65959 2.60362C6.61719 2.65312 6.56126 2.68917 6.49867 2.70733C6.08693 2.82468 5.69008 2.9891 5.316 3.19733C5.25886 3.22938 5.19355 3.24388 5.12821 3.23901C5.06288 3.23415 5.00043 3.21015 4.94867 3.17L3.782 2.26333C3.71941 2.21258 3.64027 2.18675 3.55979 2.19081C3.4793 2.19487 3.40316 2.22853 3.346 2.28533L2.28933 3.34267C2.23153 3.39991 2.1969 3.47648 2.1921 3.55769C2.18731 3.6389 2.21267 3.71902 2.26333 3.78267L3.17 4.94933C3.21012 5.00097 3.23416 5.06326 3.23914 5.12846C3.24412 5.19365 3.22981 5.25887 3.198 5.316C2.98945 5.69001 2.8248 6.08687 2.70733 6.49867C2.68937 6.56125 2.65347 6.61721 2.60407 6.65962C2.55466 6.70204 2.49392 6.72905 2.42933 6.73733L0.962667 6.924C0.881848 6.93383 0.807327 6.97261 0.752905 7.03316C0.698482 7.09371 0.667845 7.17193 0.666667 7.25333V8.74667C0.666667 8.91133 0.795333 9.056 0.959333 9.07533L2.42867 9.26267C2.49325 9.27095 2.554 9.29797 2.6034 9.34038C2.6528 9.38279 2.6887 9.43875 2.70667 9.50133C2.82667 9.91867 2.992 10.3167 3.19733 10.684C3.2294 10.741 3.24385 10.8063 3.23887 10.8716C3.23389 10.9368 3.20969 10.9991 3.16933 11.0507L2.26267 12.2173C2.21191 12.2799 2.18608 12.3591 2.19014 12.4395C2.1942 12.52 2.22787 12.5962 2.28467 12.6533L3.34133 13.71C3.3985 13.7679 3.47509 13.8027 3.55634 13.8075C3.63759 13.8123 3.71774 13.7868 3.78133 13.736L4.948 12.8293C5.00716 12.7847 5.0792 12.7603 5.15333 12.76Z" fill="#141414" stroke="#141414" stroke-width="0.5"/>
<path d="M8.00033 11.3333C6.16233 11.3333 4.66699 9.83799 4.66699 7.99999C4.66699 6.16199 6.16233 4.66666 8.00033 4.66666C9.83833 4.66666 11.3337 6.16199 11.3337 7.99999C11.3337 9.83799 9.83833 11.3333 8.00033 11.3333ZM8.00033 5.33332C6.52966 5.33332 5.33366 6.52932 5.33366 7.99999C5.33366 9.47066 6.52966 10.6667 8.00033 10.6667C9.47099 10.6667 10.667 9.47066 10.667 7.99999C10.667 6.52932 9.47099 5.33332 8.00033 5.33332Z" fill="#141414" stroke="#141414" stroke-width="0.5"/>
</g>
<defs>
<clipPath id="clip0_36_4511">
<rect width="16" height="16" fill="white"/>
</clipPath>
</defs>
</svg>
