<svg width="14" height="14" viewBox="0 0 14 14" fill="none" xmlns="http://www.w3.org/2000/svg">
<path d="M10.2721 12.9898C10.106 12.9899 9.94241 12.9494 9.79562 12.8717L7.06868 11.4384C7.04755 11.4271 7.02396 11.4212 6.99999 11.4212C6.97603 11.4212 6.95244 11.4271 6.93131 11.4384L4.20481 12.8717C4.03585 12.9606 3.84538 13.0005 3.65495 12.9867C3.46451 12.973 3.28173 12.9063 3.12726 12.794C2.9728 12.6818 2.85282 12.5286 2.78091 12.3517C2.709 12.1749 2.68803 11.9814 2.72037 11.7933L3.24099 8.75744C3.24499 8.73365 3.2431 8.70925 3.23547 8.68637C3.22784 8.66348 3.21472 8.64282 3.19724 8.62619L0.993119 6.475C0.85627 6.34168 0.759498 6.17269 0.713768 5.98718C0.668038 5.80167 0.675178 5.60707 0.734379 5.42541C0.79358 5.24375 0.902476 5.08231 1.04873 4.95937C1.19498 4.83643 1.37274 4.75691 1.56187 4.72982L4.60818 4.2875C4.63189 4.28405 4.65439 4.27488 4.67375 4.26078C4.69312 4.24668 4.70875 4.22807 4.71931 4.20657L6.08124 1.44375C6.1656 1.27248 6.29623 1.12825 6.45833 1.02739C6.62044 0.926533 6.80754 0.873077 6.99846 0.873077C7.18938 0.873077 7.37649 0.926533 7.53859 1.02739C7.7007 1.12825 7.83132 1.27248 7.91568 1.44375L9.27849 4.20569C9.28914 4.22713 9.3048 4.24568 9.32414 4.25977C9.34349 4.27386 9.36595 4.28307 9.38962 4.28663L12.4386 4.72938C12.6276 4.75663 12.8052 4.83623 12.9514 4.95919C13.0975 5.08215 13.2063 5.24355 13.2655 5.42514C13.3247 5.60674 13.3319 5.80126 13.2862 5.98672C13.2406 6.17218 13.144 6.34117 13.0073 6.47457L10.801 8.62444C10.7836 8.64111 10.7705 8.66178 10.7629 8.68465C10.7553 8.70752 10.7533 8.73191 10.7572 8.75569L11.2779 11.7915C11.3029 11.9382 11.2957 12.0886 11.2567 12.2322C11.2177 12.3758 11.1479 12.5092 11.0521 12.6231C10.9564 12.737 10.8369 12.8286 10.7021 12.8916C10.5673 12.9547 10.4204 12.9876 10.2716 12.9881L10.2721 12.9898ZM6.99999 10.5459C7.16592 10.5459 7.32934 10.5865 7.47599 10.6641L10.2025 12.0969C10.2266 12.1107 10.2543 12.117 10.282 12.115C10.3098 12.1131 10.3363 12.103 10.3582 12.0859C10.3812 12.0702 10.399 12.0481 10.4095 12.0224C10.42 11.9966 10.4227 11.9684 10.4173 11.9411L9.89624 8.90488C9.86841 8.74147 9.88062 8.57375 9.93182 8.4161C9.98303 8.25844 10.0717 8.11556 10.1902 7.99969L12.3966 5.84938C12.4163 5.83009 12.4302 5.80568 12.4367 5.7789C12.4433 5.75213 12.4422 5.72405 12.4337 5.69784C12.4251 5.67163 12.4094 5.64834 12.3883 5.63059C12.3672 5.61284 12.3416 5.60133 12.3143 5.59738L9.26581 5.15419C9.10168 5.13043 8.94581 5.06706 8.81165 4.96957C8.6775 4.87208 8.56909 4.74339 8.49581 4.59463L7.13124 1.83225C7.11902 1.80753 7.10013 1.78672 7.07671 1.77217C7.05328 1.75762 7.02626 1.74991 6.99868 1.74991C6.9711 1.74991 6.94408 1.75762 6.92065 1.77217C6.89723 1.78672 6.87834 1.80753 6.86612 1.83225L5.50418 4.59375C5.43085 4.74257 5.32238 4.87129 5.18814 4.96879C5.05391 5.06628 4.89795 5.12962 4.73374 5.15332L1.68568 5.59738C1.65834 5.60125 1.63264 5.61271 1.6115 5.63047C1.59035 5.64823 1.57462 5.67157 1.5661 5.69784C1.55757 5.7241 1.55659 5.75223 1.56327 5.77902C1.56995 5.80581 1.58401 5.83019 1.60387 5.84938L3.80974 7.99969C3.92829 8.11556 4.01696 8.25844 4.06817 8.4161C4.11937 8.57375 4.13158 8.74147 4.10374 8.90488L3.58268 11.9411C3.57795 11.9684 3.58098 11.9965 3.59141 12.0221C3.60185 12.0478 3.61927 12.07 3.6417 12.0862C3.66413 12.1024 3.69066 12.112 3.71828 12.1139C3.7459 12.1158 3.7735 12.1099 3.79793 12.0969L6.52399 10.6636C6.67075 10.5863 6.83413 10.5459 6.99999 10.5459Z" fill="#141414"/>
</svg>
